/* XPM */
static char *mbadd[] = {
/* columns rows colors chars-per-pixel */
"16 16 23 1",
"  c black",
". c #4E6074",
"X c #5A6F86",
"o c #5E738B",
"O c #617891",
"+ c #6883A1",
"@ c #7589A0",
"# c #7590AE",
"$ c #839BB5",
"% c #869DB8",
"& c #909DAC",
"* c #93A0AD",
"= c #93A6BD",
"- c #9DB0C5",
"; c #A5B2C0",
": c #A5B6C9",
"> c #ADBCCE",
", c #B6C4D3",
"< c #B8C5D4",
"1 c #B9C6D5",
"2 c #C4CEDC",
"3 c #D0D9E3",
"4 c None",
/* pixels */
"44444     444444",
"44444 31& 444444",
"44444 1#o 444444",
"44444 1#o 444444",
"44444 1#o 444444",
"      1#X      4",
" >----=#$:1,,* 4",
" 2###########O 4",
" @oooo##+ooooo 4",
"      %#o      4",
"44444 ,#o 444444",
"44444 ,#o 444444",
"44444 ,#o 444444",
"44444 ;o. 444444",
"44444     444444",
"4444444444444444"
};
