/* XPM */
static char *mbdown[] = {
/* columns rows colors chars-per-pixel */
"16 16 35 1",
"  c black",
". c #0F1308",
"X c #445B2C",
"o c #43543D",
"O c #4D6146",
"+ c #506B46",
"@ c #5B7950",
"# c #65815C",
"$ c #6C8562",
"% c #6B9060",
"& c #709867",
"* c #7F9F76",
"= c #77A16E",
"- c #8DB389",
"; c #A6BFA0",
": c #A4C3A2",
"> c #A5C4A3",
", c #A8C6A5",
"< c #A9C7A6",
"1 c #AAC6A7",
"2 c #A8C7A8",
"3 c #AAC7A8",
"4 c #ABC7A8",
"5 c #ABC7AA",
"6 c #AEC5A8",
"7 c #ACC8A9",
"8 c #ADC8AD",
"9 c #AEC8AD",
"0 c #AFC8AD",
"q c #B2CBB0",
"w c #BDD3B8",
"e c #BFD4BB",
"r c #C1D6BD",
"t c #C2D7BE",
"y c None",
/* pixels */
"yyyyyyyyyyyyyyyy",
"yyyyyyyyyyyyyyyy",
"yyyy       yyyyy",
"yyyy t6:$# yyyyy",
"yyyy w94@+ yyyyy",
"yyyy e4>@+ yyyyy",
"yyyy t41@+ yyyyy",
"yyyy t11@+ yyyyy",
"y    t>4@+    yy",
"yy =7q94@@@X yyy",
"yyy &444@@X yyyy",
"yyyy &>0@X yyyyy",
"yyyyy.*:X yyyyyy",
"yyyyyy % yyyyyyy",
"yyyyyyy yyyyyyyy",
"yyyyyyyyyyyyyyyy"
};
