/* XPM */
static char *mbfolderprev[] = {
/* columns rows colors chars-per-pixel */
"44 39 110 2",
"   c #000000",
".  c #090909",
"X  c #161616",
"o  c #1C1C1C",
"O  c #202020",
"+  c #3E414A",
"@  c #2C5A71",
"#  c #305D77",
"$  c #2B6076",
"%  c #2D6378",
"&  c #2E697C",
"*  c #33637B",
"=  c #326B7D",
"-  c #585D6B",
";  c #376780",
":  c #346E81",
">  c #3B6D84",
",  c #337184",
"<  c #35778A",
"1  c #377B8E",
"2  c #3D7289",
"3  c #397B8E",
"4  c #426E80",
"5  c #437083",
"6  c #41738B",
"7  c #46788D",
"8  c #487486",
"9  c #497489",
"0  c #4C798C",
"q  c #457992",
"w  c #4B7E94",
"e  c #69768E",
"r  c #727D97",
"t  c #3B8092",
"y  c #3C859B",
"u  c #3E8A9D",
"i  c #428D9F",
"p  c #4D829B",
"a  c #418FA0",
"s  c #4390A4",
"d  c #4A96AC",
"f  c #4E99AF",
"g  c #4E9FB1",
"h  c #5187A0",
"j  c #5189A3",
"k  c #558EA8",
"l  c #5994AC",
"z  c #519EB2",
"x  c #5C96B1",
"c  c #5C98B2",
"v  c #52A0B6",
"b  c #56A5BB",
"n  c #5CA5BD",
"m  c #5FA9BE",
"M  c #6A95A9",
"N  c #609BB4",
"B  c #64A1BB",
"V  c #66ADBF",
"C  c #6AA3BD",
"Z  c #7AA3B5",
"A  c #7BA5B8",
"S  c #5CAAC1",
"D  c #62AAC2",
"F  c #6BA6C1",
"G  c #6BAAC5",
"H  c #6EAFC9",
"J  c #6EB5CC",
"K  c #72B4CD",
"L  c #73B5D0",
"P  c #76B9D3",
"I  c #818BA1",
"U  c #8792AE",
"Y  c #8893AF",
"T  c #8A95B2",
"R  c #8D99B5",
"E  c #8F9BB8",
"W  c #919DBA",
"Q  c #84A6B6",
"!  c #85A7B8",
"~  c #94A0BE",
"^  c #94B2BF",
"/  c #A2A2A2",
"(  c #B1B1B1",
")  c #96A2C0",
"_  c #99A5C3",
"`  c #9CA8C6",
"'  c #9EAAC8",
"]  c #95B2C1",
"[  c #A1ADCC",
"{  c #A3B0CE",
"}  c #A0BAC6",
"|  c #A5B2D1",
" . c #A9B5D5",
".. c #ABB8D7",
"X. c #ADBAD9",
"o. c #B1BEDD",
"O. c #B5CCD8",
"+. c #BBD0DA",
"@. c #A7CAE0",
"#. c #B4C1E1",
"$. c #C2C2C3",
"%. c #C3D6DF",
"&. c #D2D2D2",
"*. c #DCDCDC",
"=. c #C9D3EB",
"-. c #E2E2E2",
";. c #ECECEC",
":. c #F4F4F4",
">. c #FEFEFE",
",. c None",
/* pixels */
",.,.,.,.                                  ,.,.,.,.,.,.,.,.,.,.,.,.,.,.,.,.,.,.,.,.,.,.,.",
",.,.,.                                      ,.,.,.,.,.,.,.,.,.,.,.,.,.,.,.,.,.,.,.,.,.,.",
",.,.                  .                       ,.,.,.,.,.,.,.,.,.,.,.,.,.,.,.,.,.,.,.,.,.",
",.          O o O O O O O O O O o                                                 ,.,.,.",
"          O #.#.#.#.#.#.#.#.#.#.#.O                                                 ,.,.",
"        O #.#.#.#.O.#.#.#.#.#.o.#.#.O                                                 ,.",
"        | |  .| | | | | X. .| |  .| | O O O o O o O O O O O o O O O O O o               ",
"      O R R R E R R R R R E R R R R O =.=.=.=.=.=.=.=.=.=.=.=.=.=.=.=.=.=.O             ",
"        r r r r r r r r r r r r r O =.#.#.#.#.#.#.#.#.#.#.#.#.o.o.#.#.o.o.o.            ",
"      O r o O O O O o O O o O O O #.#.#.#.#.#.#.#.#.o.#.#.#.#.o.o.o.o.o.o.o.            ",
"        O =.=.=.=.=.=.=.=.=.=.=.=.#.#.#.#.o.o.o.#.o.o.o.o.o.o.o.o.o.o.o.o.X.            ",
"        =.#.#.#.#.#.#.#.#.#.#.#.#.o.#.o.#.o.o.o.o.o.o.o.o.X.o.X.X.X.X.X.X.X.            ",
"        #.#.#.#.#.#.#.#.o.#.o.#.o.o.o.o.o.o.o.o.o.X.o.o.X.X.X.X.X.X... ...X.            ",
"        #.o.#.o.#.o.o.o.o.o.o.o.o.o.o.X.o.X.X...X.X.X.o.X..... . .X. . . . .            ",
"        o.o.#.o.o.o.o.o.o.o.X.X.X.X.X.X.X.I - o O O O O O O O O o o o o o X . .         ",
"        o.o.o.o.o.X.X.o.X.X.X.X.X.X.X... .+ $.>.>.:.:.:.:.;.;.-.-.-.-.-.*.-.-.( .       ",
"        X.X.X.X.X.X.X............. ... ...O >.@.P J H G D m m n n b z z f d ! *..       ",
"        X.X.X.X....... ....... . . .| | ..O :.P L L K H F F C c N l l l j j s -..       ",
"        .... . . . . . . .|  .| | | | | | O :.J L K H G F B B c N l l k j j s -..       ",
"         . . . . . . .| | | { { | | [ [ | O :.G K H H F C C c c l l k j j h i *..       ",
"         . .{ | { { | { { [ { [ [ [ [ [ [ O ;.H H G F w 0 9 8 5 = h j h p p y *..       ",
"        { { { { { [ { [ [ [ [ [ [ [ ` [ [ O ;.D F C C 0 >.>.>.>.>.O.h h p p t *..       ",
"        [ [ [ [ [ [ [ ' ' ' ' ` ` ` ` ` _ O ;.n F C B 9 >.>.>.>.#.j w w w q t *..       ",
"        [ ' [ [ ` ' ` ` ` ` ` ` _ _ _ _ _ O ;.B C B c 8 >.>.>.>.A p w w q 3 3 &..       ",
"        ' ` ` ' ` ` ` ` _ _ ` _ ) ) ) ) ) O ;.S B c N 5 >.>.>.>.>.M w q 2 6 < *..       ",
"        _ ` _ ` _ _ ~ _ _ ~ ~ _ ) ) ~ ) ~ O -.S N c x 5 >.O.A >.>.>.] q 6 2 , &..       ",
"        _ _ ) _ _ _ ~ _ ~ ~ ~ ~ ~ ~ ~ E E o -.z c c l p %.p p Q >.} 7 6 6 > : &.        ",
"        ~ ~ ~ ~ ~ ~ W ~ W W W W ~ E ~ E E o -.g c l k j h p p q ] 6 2 > > ; & &..       ",
"        ~ ~ ~ W W W W W E E E E E E E E R o *.g l k j h p p w 3 2 2 2 > ; * $ &.        ",
"        ~ W W W W E E E E E E E R R R T R X -.d k j h h p w q 6 2 > > * * * @ &..       ",
"        E W W R E E R E E R T R T T T T U X *.d j j h p w q q 2 > > ; * * @ @ &.        ",
"        R R R R E T T T T T T T T U U U U X &.Q s s u y 3 3 < : , : & % % @ e -.        ",
"                                          . ( *.-.*.*.*.*.&.*.&.&.&.&.&.&.&.*./         ",
"                                              . . . . . . . .   . .     .               ",
"                                                                                        ",
"                                                                                        ",
"                                                                                        ",
",.                                                                                    ,.",
",.,.,.,.,.                              ,.,.,.,.,.,.,.,.,.,.,.,.,.,.,.,.,.,.,.,.,.,.,.,."
};
