/* XPM */
static char *mbfolder[] = {
/* columns rows colors chars-per-pixel */
"44 39 135 2",
"   c black",
".  c #202020",
"X  c #727D97",
"o  c #7F8BA6",
"O  c #808BA7",
"+  c #808CA7",
"@  c #818CA8",
"#  c #818DA8",
"$  c #828DA9",
"%  c #828EA9",
"&  c #838EAA",
"*  c #838FAA",
"=  c #848FAB",
"-  c #8490AB",
";  c #8590AC",
":  c #8591AC",
">  c #8591AD",
",  c #8691AD",
"<  c #8692AD",
"1  c #8692AE",
"2  c #8792AE",
"3  c #8793AF",
"4  c #8893AF",
"5  c #8894B0",
"6  c #8994B0",
"7  c #8994B1",
"8  c #8995B1",
"9  c #8A95B1",
"0  c #8A96B2",
"q  c #8B96B3",
"w  c #8B97B3",
"e  c #8C97B4",
"r  c #8C98B4",
"t  c #8C98B5",
"y  c #8D98B5",
"u  c #8D99B5",
"i  c #8D99B6",
"p  c #8E99B5",
"a  c #8E9AB6",
"s  c #8E9AB7",
"d  c #8F9BB7",
"f  c #8F9BB8",
"g  c #909BB8",
"h  c #909CB8",
"j  c #909CB9",
"k  c #919CB9",
"l  c #919DBA",
"z  c #929EBA",
"x  c #929EBB",
"c  c #939FBC",
"v  c #94A0BD",
"b  c #94A0BE",
"n  c #95A1BE",
"m  c #95A2BF",
"M  c #96A2BF",
"N  c #96A2C0",
"B  c #96A3C0",
"V  c #97A3C0",
"C  c #97A3C1",
"Z  c #98A4C1",
"A  c #98A4C2",
"S  c #99A5C2",
"D  c #99A5C3",
"F  c #99A6C3",
"G  c #9AA6C3",
"H  c #9AA6C4",
"J  c #9AA7C4",
"K  c #9BA7C5",
"L  c #9BA8C5",
"P  c #9CA8C6",
"I  c #9CA9C7",
"U  c #9DA9C7",
"Y  c #9DAAC7",
"T  c #9DAAC8",
"R  c #9EAAC8",
"E  c #9EABC9",
"W  c #9FABC9",
"Q  c #9FACCA",
"!  c #A0ACCA",
"~  c #A0ACCB",
"^  c #A0ADCB",
"/  c #A1ADCB",
"(  c #A1ADCC",
")  c #A1AECC",
"_  c #A2AECC",
"`  c #A2AECD",
"'  c #A2AFCD",
"]  c #A3AFCE",
"[  c #A3B0CE",
"{  c #A4B0CF",
"}  c #A4B1CF",
"|  c #A4B1D0",
" . c #A5B1D0",
".. c #A5B2D0",
"X. c #A5B3D1",
"o. c #A6B2D1",
"O. c #A6B3D1",
"+. c #A6B3D2",
"@. c #A7B3D2",
"#. c #A7B4D2",
"$. c #A7B4D3",
"%. c #A8B4D3",
"&. c #A8B5D4",
"*. c #A9B5D4",
"=. c #A9B6D5",
"-. c #AAB6D5",
";. c #AAB7D6",
":. c #ABB7D7",
">. c #ABB8D7",
",. c #ACB8D8",
"<. c #ACB9D8",
"1. c #ACB9D9",
"2. c #ADBAD9",
"3. c #AEBADA",
"4. c #AEBBDA",
"5. c #AEBBDB",
"6. c #AFBBDB",
"7. c #AFBCDB",
"8. c #AFBCDC",
"9. c #B0BCDC",
"0. c #B0BDDC",
"q. c #B0BDDD",
"w. c #B1BEDD",
"e. c #B1BEDE",
"r. c #B2BFDE",
"t. c #B2BFDF",
"y. c #B3C0E0",
"u. c #B3C1E1",
"i. c #B4C1E1",
"p. c #B4C2E1",
"a. c #B7C5E5",
"s. c #C9D3EB",
"d. c #C9D4EC",
"f. c gray100",
"g. c None",
/* pixels */
"g.g.g.g.                                  g.g.g.g.g.g.g.g.g.g.g.g.g.g.g.g.g.g.g.g.g.g.g.",
"g.g.g.                                      g.g.g.g.g.g.g.g.g.g.g.g.g.g.g.g.g.g.g.g.g.g.",
"g.g.                                          g.g.g.g.g.g.g.g.g.g.g.g.g.g.g.g.g.g.g.g.g.",
"g.          . . . . . . . . . . .                                                 g.g.g.",
"          . a.a.a.a.a.a.a.a.a.a.a..                                                 g.g.",
"        . p.p.u.u.u.u.p.p.p.p.u.p.p..                                                 g.",
"        O.O.O.O.O.O.O.O.O.O.O.O.O.O.O.. . . . . . . . . . . . . . . . . .               ",
"      . u u u u u u u u u u u u u u . d.d.d.d.d.d.d.d.d.d.d.d.d.d.d.d.d.d..             ",
"        X X X X X X X X X X X X X . s.y.p.p.p.p.p.p.p.y.p.y.p.y.u.u.t.t.t.t.            ",
"      . X . . . . . . . . . . . . p.p.p.p.p.p.p.p.y.p.e.y.y.e.y.t.t.e.e.e.e.            ",
"        . s.s.s.d.d.s.s.s.s.d.d.s.p.p.y.e.y.t.t.y.e.y.e.e.e.e.e.e.5.e.5.4.4.            ",
"        s.p.p.p.i.i.i.i.p.p.p.u.y.y.p.e.y.e.t.t.e.e.e.e.e.6.6.9.5.5.4.4.3.3.            ",
"        p.p.p.y.i.i.y.y.y.y.t.t.y.e.e.e.t.t.5.t.5.5.4.4.3.3.3.3.3.>.3.>.:.:.            ",
"        p.y.p.e.y.y.e.e.e.e.e.e.6.y.6.6.5.4.4.4.4.3.3.3.3.:.>.>.>.*.*.*.>.*.            ",
"        e.e.y.e.y.y.e.e.e.e.5.4.3.3.6.6.3.>.>.>.3.>.>.>.>.*.*.*.*.*.%.#.%.#.            ",
"        e.e.e.e.6.8.3.8.3.3.3.3.3.3.3.,.>.>.>.>.>.*.*.*.*.%.#.#.O.O.O.#.] ]             ",
"        5.4.5.5.3.3.3.3.3.3.3.:.>.*.>.*.*.*.*.%.%.#.%.O.O.O.O.O.] ] ] ] ] [             ",
"        4.3.3.3.>.>.>.>.*.*.*.*.*.$.*.$.%.%.#.O.O.O.] _ ] _ ] ] [ ] Q Q Q Q             ",
"        >.>.>.*.>.$.*.*.$.*.%.O.O.#.O.O.O.] ] ] ] ] ] ] ] Q E E Q Q Q Q Y K             ",
"        >.*.*.*.$.$.O.O.#.O.O.O.O.] ] ] ] _ _ _ Q Q E E E E E E K K K K L L             ",
"        #.#.#.O.#.O.] ] ] ] ] ] ] Q ] Q Q Q Q Q Q K Q K K K K K H H A A A A             ",
"        #.] ] ] ] ] ] ] Q ] Q Q Q E Q E E E K K K K K H A A H G A m A C A m             ",
"        ] ] ] Q Q Q Q Q E E E E E K K K H K H H G A A A A M A M M M M M M c             ",
"        Q Q Q Q Q Q Q K E K K K H H H H A A A A A A M M M M c M M v k M k k             ",
"        E K E K K H K H H H H A A C C m m m M M M M v v v v k v x k k k k d             ",
"        K K K K H H H A A A C m M M M M M v v M z k v k k k f f d d d s s u             ",
"        A A A A m m m m M M M M M k v v k x k k k k k f f f d d u u u q e 8             ",
"        A m m m M M M M x x x k v k k k f k d k u d u u w w w 0 r 8 8 8 8 8             ",
"        M M v z x v x x k k k k f f f u u u u u u e r 0 0 0 8 8 8 4 4 4 4 >             ",
"        v k z k x k k s f s s u u u w u q q e 8 8 8 8 8 8 3 3 1 > > > > = =             ",
"        f k k d s s u u u u u e w w w 8 8 8 8 4 > 8 > > > > > - % = % % % %             ",
"        d d u u w u w w w w 8 8 8 3 8 3 4 > > > = > > % - % % % % O % o o o             ",
"                                                                                        ",
"                                                                                        ",
"                                                                                        ",
"                                                                                        ",
"                                                                                        ",
"g.                                                                                    g.",
"g.g.g.g.g.                              g.g.g.g.g.g.g.g.g.g.g.g.g.g.g.g.g.g.g.g.g.g.g.g."
};
