/* XPM */
static char *mbnoapp[] = {
/* columns rows colors chars-per-pixel */
"48 48 124 2",
"   c black",
".  c #2C2736",
"X  c #2E2B39",
"o  c #363342",
"O  c #383443",
"+  c #3F3B4D",
"@  c #433F54",
"#  c #464057",
"$  c #4E4B5E",
"%  c #514C5F",
"&  c #4E4A61",
"*  c #55516B",
"=  c #59546B",
"-  c #5D596D",
";  c #5A5571",
":  c #5D5875",
">  c #605B74",
",  c #645D7A",
"<  c #66607D",
"1  c #69647E",
"2  c #6A6481",
"3  c #6E6885",
"4  c #716A86",
"5  c #736C8B",
"6  c #786F8E",
"7  c #776F90",
"8  c #767387",
"9  c #76708C",
"0  c #79728E",
"q  c #777290",
"w  c #7B7493",
"e  c #7D769A",
"r  c #7D7996",
"t  c #7E7999",
"y  c #827C95",
"u  c #827C9C",
"i  c #887F9E",
"p  c #847DA1",
"a  c #86809C",
"s  c #88829E",
"d  c #908D9B",
"f  c #93919E",
"g  c #8780A4",
"h  c #8A83A3",
"j  c #8C84AA",
"k  c #8D88A5",
"l  c #8F88AF",
"z  c #8F89B0",
"x  c #928CA4",
"c  c #938BAC",
"v  c #948CB1",
"b  c #9790AF",
"n  c #9B96A7",
"m  c #9F9AAB",
"M  c #9790B3",
"N  c #9690B8",
"B  c #9A93B4",
"V  c #9B94B9",
"C  c #9F98B7",
"Z  c #9F98BB",
"A  c #A099B6",
"S  c #A29BBC",
"D  c #A4A2AE",
"F  c #A7A4B5",
"G  c #A5A0BB",
"H  c #A8A6B0",
"J  c #AAA3BD",
"K  c #ABA9B5",
"L  c #B0ACBA",
"P  c #B5B2BE",
"I  c #9D96C0",
"U  c #A39BC2",
"Y  c #A6A0C1",
"T  c #A7A0CE",
"R  c #AAA3C4",
"E  c #ABA4C9",
"W  c #AFA8C8",
"Q  c #B0A7C8",
"!  c #B2AACB",
"~  c #B1A7D7",
"^  c #B2ACD2",
"/  c #B6ABD8",
"(  c #B5B0CE",
")  c #BAB2CA",
"_  c #B6B0D0",
"`  c #BBB3D4",
"'  c #B9B2DA",
"]  c #BEB8D6",
"[  c #BEB8D8",
"{  c #BDB5E1",
"}  c #C2BBDA",
"|  c #C4BBE4",
" . c #CBCBCB",
".. c #C6C0DE",
"X. c #C9C6DC",
"o. c #DDDDDD",
"O. c #C7C3E5",
"+. c #CAC3E2",
"@. c #CEC6EA",
"#. c #CEC8E4",
"$. c #CFC9E8",
"%. c #CFC7FC",
"&. c #D0CBE5",
"*. c #D3CDEA",
"=. c #D1C9FA",
"-. c #D5D0EC",
";. c #D8D1EF",
":. c #DFDAEE",
">. c #DAD3F1",
",. c #DDD8F6",
"<. c #E5DDE7",
"1. c #E0DBF6",
"2. c #E4DDFB",
"3. c #E1E1E1",
"4. c #E8E1EB",
"5. c #E6E2F4",
"6. c #E9E6F5",
"7. c #E9E4FC",
"8. c #F1E9F2",
"9. c #F1EDFB",
"0. c #F4F2FD",
"q. c #FCF6FC",
"w. c #FEFDFE",
"e. c None",
/* pixels */
"e.e.e.e.e.e.e.e.e.e.e.e.e.e.e.e.e.e.e.e.e.e.e.e.e.e.e.e.e.e.e.e.e.e.e.e.e.e.e.e.e.e.e.e.e.e.e.e.",
"e.e.e.e.e.e.e.e.e.e.e.e.e.e.e.e.e.e.e.e.e.e.e.e.e.e.e.e.e.e.e.e.e.e.e.e.e.e.e.e.e.e.e.e.e.e.e.e.",
"e.e.e.e.e.e.e.e.e.e.e.e.e.e.e.e.e.e.e.e.e.e.        e.e.e.e.e.e.e.e.e.e.e.e.e.e.e.e.e.e.e.e.e.e.",
"e.e.e.e.e.e.e.e.e.e.e.e.e.e.e.e.e.e.e.e.                e.e.e.e.e.e.e.e.e.e.e.e.e.e.e.e.e.e.e.e.",
"e.e.e.e.e.e.e.e.e.e.e.e.e.e.e.e.e.e.e.      3.3.          e.e.e.e.e.e.e.e.e.e.e.e.e.e.e.e.e.e.e.",
"e.e.e.e.e.e.e.e.e.e.e.e.e.e.e.e.e.e.      o.w.              e.e.e.e.e.e.e.e.e.e.e.e.e.e.e.e.e.e.",
"e.e.e.e.e.e.e.e.e.e.e.e.e.e.e.e.e.      o.w.  1.              e.e.e.e.e.e.e.e.e.e.e.e.e.e.e.e.e.",
"e.e.e.e.e.e.e.e.e.e.e.e.e.e.e.e.      3.w.  7.w.*.              e.e.e.e.e.e.e.e.e.e.e.e.e.e.e.e.",
"e.e.e.e.e.e.e.e.e.e.e.e.e.e.e.      o.w.  =.w.w.9.}               e.e.e.e.e.e.e.e.e.e.e.e.e.e.e.",
"e.e.e.e.e.e.e.e.e.e.e.e.e.e.      3.w.  =.w.0.*.0.$.+.              e.e.e.e.e.e.e.e.e.e.e.e.e.e.",
"e.e.e.e.e.e.e.e.e.e.e.e.e.      3.w.  =.w.7.;.-.*.5.O...              e.e.e.e.e.e.e.e.e.e.e.e.e.",
"e.e.e.e.e.e.e.e.e.e.e.e.      3.w.  2.w.7.@.{ O.$.#.:.} }               e.e.e.e.e.e.e.e.e.e.e.e.",
"e.e.e.e.e.e.e.e.e.e.e.      3.w.  ,.w.,.-.| ~ ' $.+.O.$.} ]               e.e.e.e.e.e.e.e.e.e.e.",
"e.e.e.e.e.e.e.e.e.e.      3.w.  >.w.5.$.$./ $.$.#.+.Y W X.` c               e.e.e.e.e.e.e.e.e.e.",
"e.e.e.e.e.e.e.e.e.      o.w.  >.0.6.#.' T / #.#.+...V M M V c V               e.e.e.e.e.e.e.e.e.",
"e.e.e.e.e.e.e.e.      3.w.  >.0.-.+.O.E T T I W ..} E N z N V v c               e.e.e.e.e.e.e.e.",
"e.e.e.e.e.e.e.      3.w.  -.0.*...+...U U U I V [ [ ] M N B B M V v               e.e.e.e.e.e.e.",
"e.e.e.e.e.e.      3.w.  -.9.<.} ..} } U I ! } v V V V N V V M V Z Z !               e.e.e.e.e.e.",
"e.e.e.e.e.      3.w.  -.9.$.} } } } E V v v ! Z j l v N N N N Z R [ ] }               e.e.e.e.e.",
"e.e.e.e.      o.w.  *.6.$.} } } } ` V v j p j ! c p c v v V U ! ] [ ` ' `               e.e.e.e.",
"e.e.e.      o.w.  $.6.&.} } } } ` Z v c U U V J Q i c c V U E } [ ` ` ` ` _               e.e.e.",
"e.e.       .8.  | 6.X.} ] } ` _ R v c p J S j u p i v B V U _ } [ [ ` _ _ _ !               e.e.",
"e.e.     .4.  ` X.} ! _ ` _ _ Y l j p t t p e p p N N N V S } _ ` ` ` ! W W R S             e.e.",
"e.     .<.  ! ) ) R R R W W M j j p U c p S U j l v N N v Q ^ ! _ ` W ! W W J B w             e.",
"e.    )   W J S S S S C g u u u u u R Q Q ! ^ Q l v v l l ^ ! ! ! Q ! W Q R Y A s =           e.",
"e.      g   w 7 7 6 9 q q 6 5 i 7 7 U Q Q Q V i v i p p i Q R R R R J R U R A s >             e.",
"e.        2   7 5 4 3 3 5 2 5 C V p v S R l i p i p p p p U U S U S J S J C i :               e.",
"e.          =   9 1 : 4 v 5 2 B B A A A A i w y p p p p u A A A A S A S B i >                 e.",
"e.e.          ;   u : w j c 6 c b b A B B B B c w w w y 6 B B B b B B S u >                 e.e.",
"e.e.e.          9   1 i s h k j c c c c b v b 4 5 4 4 5 6 b c b c b L r -                 e.e.e.",
"e.e.e.e.          4   i s s i x k x x c v l 2 2 2 3 3 2 2 y x j c J w =                 e.e.e.e.",
"e.e.e.e.e.          2   i i i i p k h i p 3 2 : 2 2 1 , , , i c H 9 =                 e.e.e.e.e.",
"e.e.e.e.e.e.          2   i u i a h a g s g s u r , , , , > y P 1 $                 e.e.e.e.e.e.",
"e.e.e.e.e.e.e.          1   t t t u a a t i i i 5 > , , , 1 d 1 $                 e.e.e.e.e.e.e.",
"e.e.e.e.e.e.e.e.          1   t r y y y t u t r * : , > 8 f - O                 e.e.e.e.e.e.e.e.",
"e.e.e.e.e.e.e.e.e.          1   r r r w r r r ; * * ; 9 D - o                 e.e.e.e.e.e.e.e.e.",
"e.e.e.e.e.e.e.e.e.e.          1   r r s 0 w w 2 2 q s H % O                 e.e.e.e.e.e.e.e.e.e.",
"e.e.e.e.e.e.e.e.e.e.e.          ,   w a a 9 9 0 0 x L % O                 e.e.e.e.e.e.e.e.e.e.e.",
"e.e.e.e.e.e.e.e.e.e.e.e.          ,   0 x n 9 9 x L - X                 e.e.e.e.e.e.e.e.e.e.e.e.",
"e.e.e.e.e.e.e.e.e.e.e.e.e.          <   9 m m x P y X                 e.e.e.e.e.e.e.e.e.e.e.e.e.",
"e.e.e.e.e.e.e.e.e.e.e.e.e.e.          >   q x K , #                 e.e.e.e.e.e.e.e.e.e.e.e.e.e.",
"e.e.e.e.e.e.e.e.e.e.e.e.e.e.e.          ;   2 ; @                 e.e.e.e.e.e.e.e.e.e.e.e.e.e.e.",
"e.e.e.e.e.e.e.e.e.e.e.e.e.e.e.e.          &   +                 e.e.e.e.e.e.e.e.e.e.e.e.e.e.e.e.",
"e.e.e.e.e.e.e.e.e.e.e.e.e.e.e.e.e.          .                 e.e.e.e.e.e.e.e.e.e.e.e.e.e.e.e.e.",
"e.e.e.e.e.e.e.e.e.e.e.e.e.e.e.e.e.e.                        e.e.e.e.e.e.e.e.e.e.e.e.e.e.e.e.e.e.",
"e.e.e.e.e.e.e.e.e.e.e.e.e.e.e.e.e.e.e.                    e.e.e.e.e.e.e.e.e.e.e.e.e.e.e.e.e.e.e.",
"e.e.e.e.e.e.e.e.e.e.e.e.e.e.e.e.e.e.e.e.                e.e.e.e.e.e.e.e.e.e.e.e.e.e.e.e.e.e.e.e.",
"e.e.e.e.e.e.e.e.e.e.e.e.e.e.e.e.e.e.e.e.e.            e.e.e.e.e.e.e.e.e.e.e.e.e.e.e.e.e.e.e.e.e."
};
