/* XPM */
static char *mbnoapp[] = {
/* columns rows colors chars-per-pixel */
"48 48 13 1",
"  c black",
". c gray12",
"X c #2F2F2F",
"o c gray31",
"O c #5F5F5F",
"+ c #6F6F6F",
"@ c gray50",
"# c gray75",
"$ c gray81",
"% c #DFDFDF",
"& c #EFEFEF",
"* c gray100",
"= c None",
/* pixels */
"=======**********************===================",
"=====*************************==================",
"====***************************=================",
"====*****#################$*****================",
"===****$.                  X&****===============",
"===****.                    X&****==============",
"===***$                      X&****=============",
"===***#                       X&****============",
"===***#    ##############O     X&****===========",
"===***#    **************@      X&****==========",
"===***#    **************@       X&****=========",
"===***#    **************@        X&****========",
"===***#    **************@         X&****=======",
"===***#    **************@          X&****======",
"===***#    **************@           X&****=====",
"===***#    **************@            X&****====",
"===***#    **************@             o****====",
"===***#    **************@              +****===",
"===***#    **************@               &***===",
"===***#    **************#@@@@@@@@@@@    #***===",
"===***#    **************************    #***===",
"===***#    **************************    #***===",
"===***#    **************************    #***===",
"===***#    **************************    #***===",
"===***#    **************************    #***===",
"===***#    **************************    #***===",
"===***#    **************************    #***===",
"===***#    **************************    #***===",
"===***#    **************************    #***===",
"===***#    **************************    #***===",
"===***#    **************************    #***===",
"===***#    **************************    #***===",
"===***#    **************************    #***===",
"===***#    **************************    #***===",
"===***#    **************************    #***===",
"===***#    **************************    #***===",
"===***#    **************************    #***===",
"===***#    **************************    #***===",
"===***#    **************************    #***===",
"===***#    @@@@@@@@@@@@@@@@@@@@@@@@@@    #***===",
"===***#                                  #***===",
"===***%                                  &***===",
"===****O                                +****===",
"===*****@.                            .@****====",
"====****************************************====",
"=====**************************************=====",
"======************************************======",
"========********************************========"
};
