/* XPM */
static char *mbremove[] = {
/* columns rows colors chars-per-pixel */
"16 16 9 1",
"  c black",
". c #5E738B",
"X c #617891",
"o c #7589A0",
"O c #7590AE",
"+ c #93A0AD",
"@ c #ADBCCE",
"# c #C4CEDC",
"$ c None",
/* pixels */
"$$$$$$$$$$$$$$$$",
"$$$$$$$$$$$$$$$$",
"$$$$$$$$$$$$$$$$",
"$$$$$$$$$$$$$$$$",
"$$$$$$$$$$$$$$$$",
"               $",
" @###########+ $",
" #OOOOOOOOOOOX $",
" o............ $",
"               $",
"$$$$$$$$$$$$$$$$",
"$$$$$$$$$$$$$$$$",
"$$$$$$$$$$$$$$$$",
"$$$$$$$$$$$$$$$$",
"$$$$$$$$$$$$$$$$",
"$$$$$$$$$$$$$$$$"
};
