/* XPM */
static char *mbup[] = {
/* columns rows colors chars-per-pixel */
"16 16 29 1",
"  c black",
". c #2D2D2D",
"X c #3B5035",
"o c #3C5235",
"O c #415639",
"+ c #4A6342",
"@ c #5B7950",
"# c #678C63",
"$ c #698267",
"% c #7EAB78",
"& c #A9C4A7",
"* c #AAC5A8",
"= c #AAC7A8",
"- c #ADC6AB",
"; c #AEC7AC",
": c #ADC8AB",
"> c #B0C7AE",
", c #B0C9B0",
"< c #B1C9B0",
"1 c #B2C9B0",
"2 c #B3CAB1",
"3 c #B4CBB2",
"4 c #B5CEB5",
"5 c #B9CEB7",
"6 c #BBD0B9",
"7 c #BAD1BA",
"8 c #CDDECB",
"9 c #CFDFCC",
"0 c None",
/* pixels */
"0000000000000000",
"0000000.00000000",
"000000 9 0000000",
"00000 8:o 000000",
"0000 8=>@o 00000",
"000 83<-@@o 0000",
"00 8<4<-@@@o 000",
"0    5;=@X    00",
"0000 6=;@X 00000",
"0000 5&;@X 00000",
"0000 6;;@X 00000",
"0000 <=:@X 00000",
"0000 %$#+O 00000",
"0000       00000",
"0000000000000000",
"0000000000000000"
};
